HIERARCHY
ROOT Hips
{
  OFFSET 5.84602e-005 68.8428 3.50346
  CHANNELS 6 Xposition Yposition Zposition Zrotation Xrotation Yrotation
  JOINT Spine
  {
    OFFSET 0 8.597 -4.6522
    CHANNELS 3 Zrotation Xrotation Yrotation
    JOINT Spine1
    {
      OFFSET 0 7.8454 0.4098
      CHANNELS 3 Zrotation Xrotation Yrotation
      JOINT Spine2
      {
        OFFSET 0 9.7078 -2.1609
        CHANNELS 3 Zrotation Xrotation Yrotation
        JOINT Neck
        {
          OFFSET 0 21.8761 -0.4549
          CHANNELS 3 Zrotation Xrotation Yrotation
          JOINT Head
          {
            OFFSET 0 12.3537 3.3602
            CHANNELS 3 Zrotation Xrotation Yrotation
            End Site
            {
              OFFSET 0.0001 18.9506 0.5657
            }
          }
        }
        JOINT LeftShoulder
        {
          OFFSET 2.2086 21.1115 7.2329
          CHANNELS 3 Zrotation Xrotation Yrotation
          JOINT LeftArm
          {
            OFFSET 13.1193 3.0282 -4.8998
            CHANNELS 3 Zrotation Xrotation Yrotation
            JOINT LeftForeArm
            {
              OFFSET 27.4081 -0.0973053 -0.2375
              CHANNELS 3 Zrotation Xrotation Yrotation
              JOINT LeftHand
              {
                OFFSET 22.8641 0.0662994 -0.1369
                CHANNELS 3 Zrotation Xrotation Yrotation
                JOINT LeftHandIndex1
                {
                  OFFSET 8.8614 0.775009 2.4612
                  CHANNELS 3 Zrotation Xrotation Yrotation
                  JOINT LeftHandIndex2
                  {
                    OFFSET 3.3146 -0.808304 0.5841
                    CHANNELS 3 Zrotation Xrotation Yrotation
                    JOINT LeftHandIndex3
                    {
                      OFFSET 2.2628 -0.552002 0.3989
                      CHANNELS 3 Zrotation Xrotation Yrotation
                      End Site
                      {
                        OFFSET 1.6102 -0.4807 0.2612
                      }
                    }
                  }
                }
                JOINT LeftHandMiddle1
                {
                  OFFSET 8.9937 0.895004 0.2143
                  CHANNELS 3 Zrotation Xrotation Yrotation
                  JOINT LeftHandMiddle2
                  {
                    OFFSET 4.0984 0.0113983 -0.0242
                    CHANNELS 3 Zrotation Xrotation Yrotation
                    JOINT LeftHandMiddle3
                    {
                      OFFSET 2.2716 0.00689697 -0.0138001
                      CHANNELS 3 Zrotation Xrotation Yrotation
                      End Site
                      {
                        OFFSET 2.0404 -0.1441 0.0027
                      }
                    }
                  }
                }
                JOINT LeftHandRing1
                {
                  OFFSET 8.5234 0.597198 -2.0164
                  CHANNELS 3 Zrotation Xrotation Yrotation
                  JOINT LeftHandRing2
                  {
                    OFFSET 3.7188 -0.188293 -0.2328
                    CHANNELS 3 Zrotation Xrotation Yrotation
                    JOINT LeftHandRing3
                    {
                      OFFSET 2.1191 -0.106598 -0.1332
                      CHANNELS 3 Zrotation Xrotation Yrotation
                      End Site
                      {
                        OFFSET 1.8737 -0.2304 -0.0886
                      }
                    }
                  }
                }
                JOINT LeftHandPinky1
                {
                  OFFSET 7.9094 -0.601089 -3.4825
                  CHANNELS 3 Zrotation Xrotation Yrotation
                  JOINT LeftHandPinky2
                  {
                    OFFSET 2.2874 -0.477005 -0.6314
                    CHANNELS 3 Zrotation Xrotation Yrotation
                    JOINT LeftHandPinky3
                    {
                      OFFSET 1.6774 -0.349396 -0.4633
                      CHANNELS 3 Zrotation Xrotation Yrotation
                      End Site
                      {
                        OFFSET 1.4888 -0.4091 -0.3416
                      }
                    }
                  }
                }
                JOINT LeftHandThumb1
                {
                  OFFSET 1.833 -1.3875 1.3896
                  CHANNELS 3 Zrotation Xrotation Yrotation
                  JOINT LeftHandThumb2
                  {
                    OFFSET 3.4129 -1.121 2.5732
                    CHANNELS 3 Zrotation Xrotation Yrotation
                    JOINT LeftHandThumb3
                    {
                      OFFSET 2.2474 -0.804199 1.6192
                      CHANNELS 3 Zrotation Xrotation Yrotation
                      End Site
                      {
                        OFFSET 1.6527 -0.5689 1.1317
                      }
                    }
                  }
                }
              }
            }
          }
        }
        JOINT RightShoulder
        {
          OFFSET -2.2086 21.1115 7.2329
          CHANNELS 3 Zrotation Xrotation Yrotation
          JOINT RightArm
          {
            OFFSET -13.1216 3.0287 -4.9007
            CHANNELS 3 Zrotation Xrotation Yrotation
            JOINT RightForeArm
            {
              OFFSET -27.4081 -0.0973053 -0.2375
              CHANNELS 3 Zrotation Xrotation Yrotation
              JOINT RightHand
              {
                OFFSET -22.8641 0.0664063 -0.1369
                CHANNELS 3 Zrotation Xrotation Yrotation
                JOINT RightHandIndex1
                {
                  OFFSET -8.8614 0.774994 2.4612
                  CHANNELS 3 Zrotation Xrotation Yrotation
                  JOINT RightHandIndex2
                  {
                    OFFSET -3.3146 -0.808304 0.5841
                    CHANNELS 3 Zrotation Xrotation Yrotation
                    JOINT RightHandIndex3
                    {
                      OFFSET -2.2628 -0.552002 0.3989
                      CHANNELS 3 Zrotation Xrotation Yrotation
                      End Site
                      {
                        OFFSET -1.6102 -0.4807 0.2612
                      }
                    }
                  }
                }
                JOINT RightHandMiddle1
                {
                  OFFSET -8.9937 0.894989 0.2143
                  CHANNELS 3 Zrotation Xrotation Yrotation
                  JOINT RightHandMiddle2
                  {
                    OFFSET -4.0984 0.0113983 -0.0242
                    CHANNELS 3 Zrotation Xrotation Yrotation
                    JOINT RightHandMiddle3
                    {
                      OFFSET -2.2716 0.00691223 -0.0138001
                      CHANNELS 3 Zrotation Xrotation Yrotation
                      End Site
                      {
                        OFFSET -2.0404 -0.1441 0.0027
                      }
                    }
                  }
                }
                JOINT RightHandRing1
                {
                  OFFSET -8.5234 0.597198 -2.0164
                  CHANNELS 3 Zrotation Xrotation Yrotation
                  JOINT RightHandRing2
                  {
                    OFFSET -3.7188 -0.188309 -0.2328
                    CHANNELS 3 Zrotation Xrotation Yrotation
                    JOINT RightHandRing3
                    {
                      OFFSET -2.1191 -0.106598 -0.1332
                      CHANNELS 3 Zrotation Xrotation Yrotation
                      End Site
                      {
                        OFFSET -1.8737 -0.2304 -0.0886
                      }
                    }
                  }
                }
                JOINT RightHandPinky1
                {
                  OFFSET -7.9094 -0.601105 -3.4825
                  CHANNELS 3 Zrotation Xrotation Yrotation
                  JOINT RightHandPinky2
                  {
                    OFFSET -2.2874 -0.477005 -0.6314
                    CHANNELS 3 Zrotation Xrotation Yrotation
                    JOINT RightHandPinky3
                    {
                      OFFSET -1.6774 -0.349396 -0.4633
                      CHANNELS 3 Zrotation Xrotation Yrotation
                      End Site
                      {
                        OFFSET -1.4888 -0.4091 -0.3416
                      }
                    }
                  }
                }
                JOINT RightHandThumb1
                {
                  OFFSET -1.833 -1.38751 1.3896
                  CHANNELS 3 Zrotation Xrotation Yrotation
                  JOINT RightHandThumb2
                  {
                    OFFSET -3.41299 -1.12099 2.5732
                    CHANNELS 3 Zrotation Xrotation Yrotation
                    JOINT RightHandThumb3
                    {
                      OFFSET -2.24741 -0.804108 1.6192
                      CHANNELS 3 Zrotation Xrotation Yrotation
                      End Site
                      {
                        OFFSET -1.6527 -0.5689 1.1317
                      }
                    }
                  }
                }
              }
            }
          }
        }
      }
    }
  }
  JOINT RightUpLeg
  {
    OFFSET -9.1966 3.8861 -0.7581
    CHANNELS 3 Zrotation Xrotation Yrotation
    JOINT RightLeg
    {
      OFFSET -0.7359 -41.0265 0
      CHANNELS 3 Zrotation Xrotation Yrotation
      JOINT RightFoot
      {
        OFFSET 0 -40.2855 0
        CHANNELS 3 Zrotation Xrotation Yrotation
        JOINT RightToeBase
        {
          OFFSET 0 -5.6122 11.7359
          CHANNELS 3 Zrotation Xrotation Yrotation
          End Site
          {
            OFFSET 0 0 7.8731
          }
        }
      }
    }
  }
  JOINT LeftUpLeg
  {
    OFFSET 9.1965 3.8864 -0.7581
    CHANNELS 3 Zrotation Xrotation Yrotation
    JOINT LeftLeg
    {
      OFFSET 0.7359 -41.0268 0
      CHANNELS 3 Zrotation Xrotation Yrotation
      JOINT LeftFoot
      {
        OFFSET 0 -40.2855 0
        CHANNELS 3 Zrotation Xrotation Yrotation
        JOINT LeftToeBase
        {
          OFFSET 0 -5.6122 11.7359
          CHANNELS 3 Zrotation Xrotation Yrotation
          End Site
          {
            OFFSET 0 0 7.8731
          }
        }
      }
    }
  }
}
MOTION
Frames:	6
Frame Time:	0.0333333
5.84602e-005 68.8428 3.50346 0 0 -0 0 0 -0 0 0 -0 0 0 -0 0 0 -0 0.00296843 0 -0 0 0 -0 0 0 -0 0 0 -0 0 0 -0 0 0 -0 0 0 -0 0 0 -0 0 0 -0 -0.0146107 -8.87603e-005 -2.63497e-007 2.99804e-018 -2.42657e-020 -1.42182e-022 0 0 -0 -0.0187562 -0.001176 5.858e-005 5.06224e-018 3.88251e-019 1.21329e-020 0 0 -0 -0.012269 -0.00324817 0.000675346 -1.74678e-018 3.88251e-019 -0 0 0 -0 0 0 -0 0 0 -0 0 0 -0 0 0 -0 0 0 -0 0 0 -0 0 0 -0 0 0 -0 0 0 -0 0 0 -0 0.0149955 -9.10982e-005 2.64101e-007 -9.69331e-018 1.21329e-020 -4.7394e-023 0 0 -0 0.0189956 -0.00119102 -5.96516e-005 -5.41541e-019 0 2.42657e-020 0 0 -0 0.0122698 -0.00324857 -0.000673756 -2.00796e-019 0 -1.94126e-019 0 0 -0 0 0 -0 0 0 -0 3.39842 1.33031 -0.0637918 -5.65207e-008 0.834868 -0.000436188 -3.39935 -2.16518 -0.0642563 -8.89002e-024 -1.18485e-023 -1.48106e-024 -3.39844 1.35642 0.0640283 -3.18788e-007 0.782166 -0.000588827 3.39931 -2.13858 0.0634662 1.1399e-023 0 -0 
15.9543 9.17885 23.132 -0 -33.0001 -0 0 15.5992 -0 0 31.1985 -0 0 31.1985 -0 0 30.9996 -0 0.00379783 0.274528 -0.173106 -0 -3.18055e-015 -0 -75.9999 4.32047e-006 4.99677 1.70431e-005 -5.20204e-006 -81.0033 24.9975 -7.31728e-007 -1.32998e-007 2.78299e-015 1.19271e-015 -6.36111e-015 2.38542e-015 -3.57812e-015 -0 -1.59028e-015 -4.37326e-015 -0 2.78299e-015 1.19271e-015 -6.36111e-015 -0.0145651 -9.00356e-005 6.71834e-007 5.96354e-015 -1.59028e-015 -3.18055e-015 2.78299e-015 1.19271e-015 -6.36111e-015 -0.0187587 -0.00117829 6.21291e-005 1.19271e-015 3.97569e-015 -9.54166e-015 2.78299e-015 1.19271e-015 -6.36111e-015 -0.0123142 -0.00325741 0.000677034 4.37326e-015 -3.97569e-015 -3.18055e-015 2.78299e-015 1.19271e-015 -6.36111e-015 2.38542e-015 -3.57812e-015 -0 -1.59028e-015 -4.37326e-015 -0 -1.61294e-007 3.10691e-006 16.997 41.2855 26.9434 28.3005 2.29245 4.55097 51.9493 18.1005 -8.45685 20.2263 -4.96564e-031 9.54166e-015 2.98177e-015 8.82332e-007 1.0584e-006 1.98059e-006 1.06505e-006 -1.04906e-006 1.04914e-006 -4.96564e-031 9.54166e-015 2.98177e-015 0.0149986 -9.24691e-005 1.30102e-006 -3.97569e-015 6.36111e-015 -1.98785e-016 -4.96564e-031 9.54166e-015 2.98177e-015 0.0190151 -0.00119919 -6.08064e-005 -1.5559e-030 9.54166e-015 9.34288e-015 -4.96564e-031 9.54166e-015 2.98177e-015 0.0122899 -0.00325444 -0.000677025 1.06341e-006 -1.04849e-006 1.04932e-006 -4.96564e-031 9.54166e-015 2.98177e-015 8.82332e-007 1.0584e-006 1.98059e-006 1.06505e-006 -1.04906e-006 1.04914e-006 -48.1983 -10.4522 6.02245 179.943 41.7607 174.142 -2.10871 16.051 -3.63325 3.08109e-006 -9.22166e-008 -5.51854e-006 42.3552 -22.0513 2.33537 -179.901 34.4117 -172.377 -2.1203 43.0944 6.41211 1.37758e-007 5.83957e-006 4.17987e-006 
15.9509 9.64031 23.1268 -0 -33.0001 -0 0 15.5992 -0 0 31.1985 -0 0 31.1985 -0 0 30.9996 -0 -0.00296983 -2.01976 -0.168489 0 0 -0 -76 -1.53664e-006 4.99679 -3.01543e-007 -6.38562e-007 -82.0108 24.3258 2.23816e-006 -2.43013e-007 5.00935e-006 3.1368e-006 3.27662e-006 -4.77083e-015 -5.56597e-015 -0 -2.78299e-015 -4.37326e-015 3.18055e-015 5.00935e-006 3.1368e-006 3.27662e-006 -0.0145703 -8.96339e-005 -4.04509e-006 9.93923e-015 8.34896e-015 -6.36111e-015 5.00935e-006 3.1368e-006 3.27662e-006 -0.0187824 -0.00118015 5.4952e-005 7.95139e-016 1.59028e-015 -0 5.00935e-006 3.1368e-006 3.27662e-006 -0.012296 -0.00325321 0.000680445 1.19271e-015 1.98785e-015 -9.54166e-015 5.00935e-006 3.1368e-006 3.27662e-006 -4.77083e-015 -5.56597e-015 -0 -2.78299e-015 -4.37326e-015 3.18055e-015 -1.2866e-006 2.76963e-006 16.997 39.1233 26.9096 28.6725 3.42149 3.45968 56.3145 18.1005 -8.45684 20.2263 4.02101e-007 3.24025e-006 -4.41966e-007 -1.25426e-006 -3.71152e-006 1.82646e-006 4.02101e-007 3.24025e-006 -4.41966e-007 4.02101e-007 3.24025e-006 -4.41966e-007 0.0149925 -0.000100616 -2.58972e-006 4.01848e-007 3.2402e-006 -4.4239e-007 4.02101e-007 3.24025e-006 -4.41966e-007 0.019012 -0.0011958 -6.09986e-005 4.01775e-007 3.2402e-006 -4.42507e-007 4.02101e-007 3.24025e-006 -4.41966e-007 0.0122806 -0.00325644 -0.000675434 4.01863e-007 3.24026e-006 -4.42313e-007 4.02101e-007 3.24025e-006 -4.41966e-007 -1.25426e-006 -3.71152e-006 1.82646e-006 4.02101e-007 3.24025e-006 -4.41966e-007 -47.0026 -10.7126 6.30631 179.943 41.7604 174.142 -2.10854 15.9998 -3.63381 -3.37075e-006 -1.19858e-006 2.95751e-007 40.9891 -21.7758 1.21443 -179.903 34.8663 -172.476 -2.04424 43.0455 6.31496 5.36989e-007 -6.75674e-007 1.34811e-006 
15.9476 10.1017 23.1216 -0 -33.0001 -0 0 15.5992 -0 0 31.1985 -0 0 31.1985 -0 0 30.9996 -0 -0.00621585 -4.34279 -0.163941 0 0 -0 -76 1.83971e-006 4.99678 1.21269e-005 -1.13874e-005 -83.023 23.6528 -9.9999e-007 -1.39885e-006 -3.97569e-016 -1.19271e-015 -6.36111e-015 -4.16711e-007 1.41438e-006 8.06026e-007 2.78299e-015 7.95139e-016 -0 -3.97569e-016 -1.19271e-015 -6.36111e-015 -0.0145788 -8.68804e-005 1.27661e-006 -1.19271e-015 3.97569e-016 -1.59028e-014 -3.97569e-016 -1.19271e-015 -6.36111e-015 -0.018769 -0.00117608 6.33871e-005 3.18055e-015 1.98785e-015 -6.36111e-015 -3.97569e-016 -1.19271e-015 -6.36111e-015 -0.0123433 -0.00326353 0.000678037 -7.95139e-016 1.07344e-014 3.18055e-015 -3.97569e-016 -1.19271e-015 -6.36111e-015 -4.16711e-007 1.41438e-006 8.06026e-007 2.78299e-015 7.95139e-016 -0 -1.2866e-006 2.76963e-006 16.997 36.9575 26.8633 29.0435 4.63353 2.45421 60.7112 18.1005 -8.45685 20.2263 -1.59028e-015 -6.36111e-015 -5.56597e-015 4.77083e-015 3.18055e-015 1.98785e-015 -5.29669e-031 6.36111e-015 4.77083e-015 -1.59028e-015 -6.36111e-015 -5.56597e-015 0.014979 -8.63867e-005 1.63956e-006 -1.32417e-030 -6.36111e-015 -1.19271e-014 -1.59028e-015 -6.36111e-015 -5.56597e-015 0.0189714 -0.00119052 -5.79592e-005 3.97569e-015 -3.18055e-015 -4.77083e-015 -1.59028e-015 -6.36111e-015 -5.56597e-015 0.0122314 -0.00323928 -0.000668647 -4.77083e-015 9.54166e-015 4.77083e-015 -1.59028e-015 -6.36111e-015 -5.56597e-015 4.77083e-015 3.18055e-015 1.98785e-015 -5.29669e-031 6.36111e-015 4.77083e-015 -45.8026 -10.9678 6.59638 179.943 41.7601 174.143 -2.10862 15.9491 -3.63473 1.65537e-006 2.55733e-006 3.37405e-006 39.628 -21.4803 0.104914 -179.904 35.3217 -172.571 -1.97038 42.9982 6.22098 5.07805e-007 -6.25516e-007 1.27407e-006 
15.9441 10.563 23.1163 -0 -33.0001 -0 0 15.5992 -0 0 31.1985 -0 0 31.1985 -0 0 30.9996 -0 -0.00936986 -6.69315 -0.159457 0 0 -0 -75.9999 -6.17041e-006 4.99679 7.72087e-006 -9.46383e-006 -84.0396 22.9785 -4.44294e-006 -3.30778e-006 2.8102e-006 8.54328e-007 -6.2449e-007 -2.13738e-006 -1.64328e-006 -1.47915e-006 7.95139e-016 1.98785e-015 -0 2.8102e-006 8.54328e-007 -6.2449e-007 -0.0146257 -8.96858e-005 -7.37152e-007 1.10348e-031 -1.98785e-015 3.18055e-015 2.8102e-006 8.54328e-007 -6.2449e-007 -0.0187823 -0.00117568 5.71602e-005 6.9122e-007 1.01079e-006 1.04295e-006 2.8102e-006 8.54328e-007 -6.2449e-007 -0.0122915 -0.00325449 0.000676761 -1.07344e-014 2.78299e-015 3.18055e-015 2.8102e-006 8.54328e-007 -6.2449e-007 -2.13738e-006 -1.64328e-006 -1.47915e-006 7.95139e-016 1.98785e-015 -0 -1.2866e-006 2.76963e-006 16.997 34.7896 26.8043 29.4127 5.91841 1.5447 65.1255 18.1005 -8.45684 20.2263 -4.53675e-007 -1.98829e-007 6.9063e-007 1.36102e-006 5.96486e-007 -2.07189e-006 -4.53675e-007 -1.98829e-007 6.9063e-007 -4.53675e-007 -1.98829e-007 6.9063e-007 0.0150255 -9.35402e-005 -4.56883e-006 -4.53663e-007 -1.98738e-007 6.90657e-007 -4.53675e-007 -1.98829e-007 6.9063e-007 0.0190214 -0.00119012 -6.12384e-005 -4.53654e-007 -1.98715e-007 6.90668e-007 -4.53675e-007 -1.98829e-007 6.9063e-007 0.0122788 -0.0032553 -0.000674327 -4.53645e-007 -1.9876e-007 6.90664e-007 -4.53675e-007 -1.98829e-007 6.9063e-007 1.36102e-006 5.96486e-007 -2.07189e-006 -4.53675e-007 -1.98829e-007 6.9063e-007 -44.5985 -11.2176 6.89255 179.943 41.7599 174.142 -2.1089 15.8988 -3.63604 -3.46045e-007 -3.31952e-006 1.64481e-007 38.2728 -21.1649 -0.992452 -179.906 35.7779 -172.664 -1.89857 42.9523 6.13002 -6.44683e-008 -2.8529e-006 -1.48278e-006 
15.9406 11.0243 23.1111 -0 -33.0001 -0 0 15.5992 -0 0 31.1985 -0 0 31.1985 -0 0 30.9991 -0 -0.0122957 -9.06933 -0.155028 -0 -6.36111e-015 -0 -76 2.70112e-006 4.99679 1.35767e-005 -1.71225e-005 -85.0606 22.303 7.03449e-007 2.66507e-006 1.19271e-015 -9.14409e-015 3.18055e-015 3.97569e-016 -8.34896e-015 -0 1.59028e-015 -9.14409e-015 -3.18055e-015 1.19271e-015 -9.14409e-015 3.18055e-015 -0.0146374 -8.87502e-005 3.27668e-006 -8.74653e-015 -1.19271e-015 9.54166e-015 1.19271e-015 -9.14409e-015 3.18055e-015 -0.0187806 -0.0011784 6.57666e-005 -3.57812e-015 -3.97569e-015 -6.36111e-015 1.19271e-015 -9.14409e-015 3.18055e-015 -0.0122499 -0.00324268 0.000673983 7.95139e-016 -2.38542e-015 9.54166e-015 1.19271e-015 -9.14409e-015 3.18055e-015 3.97569e-016 -8.34896e-015 -0 1.59028e-015 -9.14409e-015 -3.18055e-015 -1.29558e-006 2.59314e-006 16.997 32.6214 26.7328 29.7792 7.26438 0.739477 69.5428 18.1005 -8.45684 20.2263 9.37336e-009 -1.83045e-006 -3.42753e-007 2.38542e-015 0 5.56597e-015 4.58197e-008 -2.03213e-006 -5.89164e-008 9.37336e-009 -1.83045e-006 -3.42753e-007 0.0149712 -8.33057e-005 5.57848e-007 7.95139e-016 -3.18055e-015 -1.19271e-014 9.37336e-009 -1.83045e-006 -3.42753e-007 0.019022 -0.00119085 -5.59254e-005 2.38542e-015 -6.36111e-015 3.97569e-016 9.37336e-009 -1.83045e-006 -3.42753e-007 0.0122604 -0.00324843 -0.000672846 -3.18055e-015 -3.18055e-015 -5.96354e-015 9.37336e-009 -1.83045e-006 -3.42753e-007 2.38542e-015 0 5.56597e-015 4.58197e-008 -2.03213e-006 -5.89164e-008 -43.3907 -11.4616 7.19467 179.943 41.7599 174.141 -2.10942 15.849 -3.63769 8.15844e-007 7.14345e-007 1.29757e-006 36.9242 -20.8297 -2.07704 -179.907 36.2349 -172.753 -1.82887 42.908 6.04209 -2.96849e-006 -2.84359e-006 -2.0706e-007 
